<?xml version="1.0" encoding="iso-8859-1"?>
<!-- Generator: Adobe Illustrator 18.1.1, SVG Export Plug-In . SVG Version: 6.00 Build 0)  -->
<svg version="1.1" id="Capa_1" xmlns="http://www.w3.org/2000/svg" xmlns:xlink="http://www.w3.org/1999/xlink" x="0px" y="0px"
	 viewBox="0 0 450 450" style="enable-background:new 0 0 450 450;" xml:space="preserve">
<g>
	<g id="Layer_1_27_">
		<g>
			<path d="M373.478,279.727c-6.129,0-12.093,0.731-17.813,2.1l-3.18-8.551c18.2-4.437,40.588-7.015,68.269,10.265
				c4.879,3.042,11.297,1.559,14.338-3.317c3.046-4.878,1.638-11.423-3.314-14.345c-29.31-17.29-60.271-22.74-77.559-24.455
				c1.217-2.3,1.915-4.918,1.915-7.701V220.53c0-9.107-16.828-16.49-25.935-16.49h-3.413l-4.525-12.117l-20.11-2.874
				c-0.486-1.17-1.104-2.305-1.891-3.369l-52.995-71.592c0,0-12.282-16.081-28.413-22.891c-16.369-7.607-40.863-4.792-54.154,15.348
				c-20.251,30.686-44.88,71.931-50.675,81.005c-5.961,9.334-4.198,21.566,4.858,27.94l34.878,23.944L4.278,239.415
				c-0.002,0-0.006,0-0.01,0c-1.502,0-2.892,0.788-3.664,2.074c-0.77,1.292-0.806,2.896-0.094,4.218l12.75,23.622
				c0.604,1.119,1.679,1.911,2.928,2.159l56.701,11.242c-31.886,9.232-55.27,38.693-55.27,73.519
				c0,42.192,34.327,76.52,76.522,76.52s76.519-34.327,76.519-76.52c0-0.416-0.006-0.833-0.014-1.248h106.057
				c0.148,0.017,0.294,0.021,0.439,0.021c1.812,0,3.468-1.162,4.046-2.934c15.991-48.641,43.01-65.604,52.304-70.159l2.778,7.476
				c-23.433,13.095-39.31,38.146-39.31,66.844c0,42.192,34.322,76.52,76.517,76.52S450,398.442,450,356.25
				C450,314.055,415.672,279.727,373.478,279.727z M94.142,411.952c-30.715,0-55.707-24.986-55.707-55.702
				c0-30.717,24.992-55.703,55.707-55.703c22.015,0,41.082,12.836,50.119,31.42l-48.835,17.925
				c-5.396,1.981-8.166,7.963-6.185,13.357c1.548,4.213,5.53,6.824,9.774,6.824c1.191,0,2.4-0.204,3.583-0.64l47.078-17.279
				c0.101,1.353,0.165,2.715,0.165,4.096C149.842,386.965,124.856,411.952,94.142,411.952z M278.726,239.753
				c-24.206,0.48-38.88,12.278-46.931,22.073l-41.006-36.197l37.645-74.35l47.053,54.262c4.908,5.63,13.108,7.063,19.6,3.526
				l11.973,1.712l10.646,28.956L278.726,239.753z M373.478,411.952c-30.715,0-55.7-24.986-55.7-55.702
				c0-19.744,10.334-37.109,25.863-47.003l20.078,54.04c1.563,4.193,5.535,6.786,9.761,6.786c1.206,0,2.43-0.209,3.626-0.654
				c5.387-2.002,8.135-7.992,6.129-13.382l-20.243-54.487c3.401-0.649,6.902-1.003,10.486-1.003
				c30.715,0,55.706,24.986,55.706,55.703C429.184,386.965,404.192,411.952,373.478,411.952z"/>
			<path d="M240.102,90.877c20.268,2.371,38.619-12.137,40.99-32.404c2.37-20.266-12.141-38.618-32.406-40.988
				c-20.267-2.372-38.619,12.137-40.986,32.404C205.325,70.158,219.835,88.505,240.102,90.877z"/>
		</g>
	</g>
</g>
<g>
</g>
<g>
</g>
<g>
</g>
<g>
</g>
<g>
</g>
<g>
</g>
<g>
</g>
<g>
</g>
<g>
</g>
<g>
</g>
<g>
</g>
<g>
</g>
<g>
</g>
<g>
</g>
<g>
</g>
</svg>
